<?xml version="1.0" standalone="no"?><!DOCTYPE svg PUBLIC "-//W3C//DTD SVG 1.1//EN" "http://www.w3.org/Graphics/SVG/1.1/DTD/svg11.dtd"><svg t="1735266695419" class="icon" viewBox="0 0 1024 1024" version="1.1" xmlns="http://www.w3.org/2000/svg" p-id="2632" xmlns:xlink="http://www.w3.org/1999/xlink" width="64" height="64"><path d="M944.192 512.064q0 10.624-0.512 21.248-0.512 10.56-1.568 21.12-1.024 10.592-2.592 21.12-1.568 10.464-3.616 20.896-2.08 10.4-4.672 20.704-2.56 10.304-5.664 20.448-3.072 10.144-6.656 20.16-3.552 9.984-7.616 19.808-4.064 9.792-8.64 19.392-4.48 9.6-9.504 18.944-5.024 9.376-10.464 18.464-5.44 9.12-11.36 17.92-5.888 8.864-12.224 17.376t-13.056 16.736q-6.72 8.192-13.856 16.064t-14.656 15.36q-7.488 7.52-15.36 14.656-7.872 7.136-16.064 13.856-8.224 6.72-16.736 13.056-8.512 6.336-17.344 12.224t-17.92 11.36q-9.12 5.44-18.496 10.464-9.344 4.992-18.944 9.536t-19.392 8.608q-9.824 4.064-19.84 7.616-9.984 3.584-20.16 6.656-10.112 3.104-20.416 5.664-10.304 2.56-20.704 4.672-10.432 2.048-20.928 3.616t-21.056 2.592q-10.56 1.056-21.184 1.568-10.592 0.512-21.216 0.512-10.592 0-21.216-0.512-10.592-0.512-21.152-1.568-10.56-1.024-21.056-2.592-10.528-1.568-20.928-3.616-10.4-2.08-20.704-4.672-10.304-2.56-20.48-5.664-10.144-3.072-20.16-6.656-9.952-3.552-19.776-7.616-9.792-4.064-19.392-8.64-9.6-4.512-18.976-9.504-9.344-5.024-18.464-10.464-9.088-5.44-17.92-11.36-8.832-5.888-17.344-12.224-8.544-6.336-16.736-13.056-8.224-6.72-16.064-13.856-7.872-7.136-15.36-14.656-7.52-7.488-14.656-15.36-7.136-7.872-13.856-16.064-6.72-8.224-13.056-16.736-6.336-8.512-12.224-17.344-5.92-8.832-11.36-17.92-5.44-9.12-10.464-18.496-4.992-9.344-9.536-18.944t-8.608-19.392q-4.064-9.824-7.648-19.84-3.584-9.984-6.656-20.128-3.072-10.144-5.664-20.48-2.56-10.272-4.64-20.672-2.08-10.432-3.616-20.928-1.6-10.496-2.624-21.056t-1.536-21.152q-0.544-10.624-0.544-21.248 0-10.592 0.544-21.216 0.512-10.56 1.536-21.152 1.056-10.56 2.624-21.056 1.536-10.496 3.616-20.928 2.08-10.4 4.64-20.704 2.56-10.304 5.664-20.48 3.072-10.112 6.656-20.128 3.584-9.984 7.648-19.808 4.064-9.792 8.608-19.392 4.544-9.6 9.536-18.944 4.992-9.376 10.464-18.464 5.44-9.12 11.36-17.92 5.888-8.864 12.224-17.376 6.304-8.512 13.056-16.736 6.72-8.192 13.856-16.064t14.624-15.36q7.52-7.52 15.36-14.656 7.872-7.136 16.096-13.856 8.192-6.72 16.736-13.056 8.512-6.336 17.344-12.224t17.92-11.36q9.12-5.44 18.464-10.464 9.376-4.992 18.976-9.536t19.392-8.608q9.824-4.064 19.808-7.616 9.984-3.584 20.16-6.656 10.144-3.104 20.448-5.664 10.304-2.56 20.704-4.672 10.4-2.048 20.928-3.616 10.496-1.568 21.056-2.592 10.56-1.056 21.152-1.568 10.624-0.512 21.216-0.512 10.624 0 21.216 0.512 10.624 0.512 21.184 1.568 10.56 1.024 21.056 2.592t20.928 3.616q10.4 2.08 20.704 4.672 10.304 2.56 20.448 5.664 10.144 3.072 20.16 6.656 9.984 3.552 19.808 7.616 9.792 4.064 19.392 8.64 9.6 4.48 18.944 9.504 9.376 5.024 18.464 10.464 9.12 5.44 17.92 11.36 8.864 5.888 17.376 12.224t16.736 13.056q8.192 6.72 16.064 13.856t15.36 14.656q7.52 7.488 14.656 15.36 7.136 7.872 13.856 16.064 6.72 8.224 13.056 16.736 6.336 8.512 12.224 17.344t11.36 17.92q5.44 9.12 10.464 18.496 4.992 9.344 9.536 18.944t8.608 19.392q4.064 9.824 7.616 19.84 3.584 9.984 6.656 20.128 3.104 10.144 5.664 20.48 2.56 10.24 4.672 20.672 2.048 10.432 3.616 20.928t2.592 21.056q1.056 10.56 1.568 21.152 0.512 10.624 0.512 21.216z" fill="#409EFF" p-id="2633"></path><path d="M286.848 417.824a256.256 256.256 0 0 0-207.104 105.056c4.576 182.72 122.368 337.312 285.952 396.032a256.8 256.8 0 0 0 177.92-244.352 256.8 256.8 0 0 0-256.768-256.736z" fill="#51C5FF" p-id="2634"></path><path d="M339.52 339.52C301.856 376.256 288.96 437.76 287.936 512c1.024 74.272 13.92 135.776 51.648 172.48 36.672 37.696 98.176 50.592 172.448 51.616 74.272-1.024 135.776-13.92 172.48-51.648 37.696-36.672 50.592-98.176 51.616-172.448-1.024-74.272-13.92-135.776-51.648-172.48C647.776 301.856 586.272 288.96 512 287.936c-74.272 1.024-135.776 13.92-172.48 51.648z m24.16 230.4a13.856 13.856 0 0 1 2.976-19.36L419.328 512a13.856 13.856 0 0 1 15.744-0.416l45.856 29.76 44.48-98.624c2.272-5.024 7.072-8.32 12.8-8.16a13.856 13.856 0 0 1 12.608 8.448l35.712 84.32 63.872 5.824a13.856 13.856 0 0 1-2.528 27.616l-72.128-6.592a13.856 13.856 0 0 1-11.52-8.384l-26.56-62.816-38.112 84.48a13.856 13.856 0 0 1-20.16 5.888l-51.392-33.312-44.96 32.896a13.76 13.76 0 0 1-19.36-3.008z" fill="#FFFFFF" p-id="2635"></path></svg>