<?xml version="1.0" standalone="no"?><!DOCTYPE svg PUBLIC "-//W3C//DTD SVG 1.1//EN" "http://www.w3.org/Graphics/SVG/1.1/DTD/svg11.dtd"><svg t="1745673676803" class="icon" viewBox="0 0 1024 1024" version="1.1" xmlns="http://www.w3.org/2000/svg" p-id="1437" xmlns:xlink="http://www.w3.org/1999/xlink" width="200" height="200"><path d="M861.40397037 717.4674963c8.49540741-0.24272592 16.99081482 1.45635555 25.12213333 6.79632592-29.4912-18.93262222-48.90927408-51.94334815-48.90927407-89.68722963V424.01185185c0-154.25232592-111.53256297-283.01842963-260.56628148-314.69416296V101.79318518c0-39.3216-31.7970963-70.99733333-70.99733333-70.99733333s-70.99733333 31.7970963-70.99733334 70.99733333v7.52450371c-149.03371852 31.67573333-260.56628148 160.32047408-260.56628148 314.69416296V634.57659259c0 37.74388148-19.53943703 70.75460741-48.90927408 89.68722963 8.25268148-5.33997037 16.62672592-7.16041482 25.12213333-6.79632592-26.09303703 0.12136297-47.21019259 21.11715555-47.21019258 47.33155555s21.11715555 47.33155555 47.33155555 47.33155556h710.33742223c26.2144 0 47.33155555-21.11715555 47.33155555-47.33155556 0.12136297-25.97167408-20.99579259-47.21019259-47.08882963-47.33155555zM506.17457778 978.03377778c65.41463703 0 118.45025185-53.03561482 118.45025185-118.45025186H387.72432592c0 65.41463703 52.91425185 118.45025185 118.45025186 118.45025186z" p-id="1438" fill="#1ff7ff"></path></svg>