<?xml version="1.0" standalone="no"?><!DOCTYPE svg PUBLIC "-//W3C//DTD SVG 1.1//EN" "http://www.w3.org/Graphics/SVG/1.1/DTD/svg11.dtd"><svg t="1728555123461" class="icon" viewBox="0 0 1024 1024" version="1.1" xmlns="http://www.w3.org/2000/svg" p-id="2474" xmlns:xlink="http://www.w3.org/1999/xlink" width="64" height="64"><path d="M641.592889 414.435556h259.754667c36.010667 0 65.194667 29.184 65.194666 65.194666v422.229334c0 36.010667-29.184 65.194667-65.194666 65.194666H479.118222a65.194667 65.194667 0 0 1-65.194666-65.194666v-259.697778H543.857778a97.052444 97.052444 0 0 0 97.28-97.28V414.435556h0.568889zM56.888889 122.197333c0-35.953778 29.184-65.137778 65.194667-65.137777h422.229333a65.194667 65.194667 0 0 1 65.251555 65.137777v422.286223c0 35.953778-29.184 65.137778-65.194666 65.137777H122.140444A65.194667 65.194667 0 0 1 56.888889 544.483556L56.888889 122.197333z m129.877333 280.803556h47.331556V377.742222h68.323555v119.921778h50.631111v-120.035556h69.916445v21.048889h51.484444v-159.288889H353.109333v-34.702222a76.515556 76.515556 0 0 1 5.745778-30.549333c0-1.024-3.128889-1.536-10.069333-2.616889h-47.331556v68.380444H186.766222v163.100445z m47.331556-124.586667h68.323555v61.269334H234.097778V278.414222z m188.757333 61.269334h-69.973333V278.186667h69.973333v61.44z m206.677333 495.502222l19.456-54.613334h102.001778l19.456 54.613334h55.637334l-91.022223-258.161778h-65.763555l-93.411556 258.218667h53.646222z m33.678223-97.28l37.888-110.364445h1.536l34.702222 110.364445h-74.126222z m238.193777-420.636445H836.266667a129.820444 129.820444 0 0 0-129.877334-129.877333V122.197333a195.015111 195.015111 0 0 1 195.128889 195.128889v-0.056889z m-779.377777 389.575111h65.308444a129.820444 129.820444 0 0 0 129.877333 129.877334v65.137778a195.015111 195.015111 0 0 1-195.128888-195.072z" fill="#409eff" p-id="2475"></path><path d="M641.934222 414.151111h259.982222c36.010667 0 65.194667 29.184 65.194667 65.251556v422.456889c0 36.067556-29.184 65.251556-65.251555 65.251555H479.402667a65.251556 65.251556 0 0 1-65.251556-65.251555v-259.925334h129.934222a97.166222 97.166222 0 0 0 97.393778-97.28V414.151111h0.455111z m-12.060444 420.977778l19.456-54.784h102.058666l19.456 54.727111h55.637334l-91.022222-258.332444h-65.763556l-93.639111 258.332444h53.816889z m33.678222-97.393778l37.888-110.478222h1.706667l34.702222 110.478222h-74.296889z m-541.411556-31.061333h65.194667a129.934222 129.934222 0 0 0 129.991111 129.991111v65.194667a195.128889 195.128889 0 0 1-195.185778-195.128889z" fill="#fff" p-id="2476"></path></svg>