<?xml version="1.0" standalone="no"?><!DOCTYPE svg PUBLIC "-//W3C//DTD SVG 1.1//EN" "http://www.w3.org/Graphics/SVG/1.1/DTD/svg11.dtd"><svg t="1739243116655" class="icon" viewBox="0 0 1024 1024" version="1.1" xmlns="http://www.w3.org/2000/svg" p-id="4166" xmlns:xlink="http://www.w3.org/1999/xlink" width="64" height="64"><path d="M512.085642 1023.939139c-279.049295-1.251342-511.23014-229.109369-512.026448-511.91269-0.796309-282.746443 229.223127-512.026449 511.969569-512.026449a512.026449 512.026449 0 0 1 511.96957 512.026449c0 282.803322-259.14158 513.050274-511.912691 511.91269z m175.984208-639.890863a48.006035 48.006035 0 0 0-48.006035-48.006034h-255.956345a48.062914 48.062914 0 0 0-48.006035 48.006034v255.956345c0 26.505702 21.557212 48.006035 48.006035 48.006035h255.956345a48.006035 48.006035 0 0 0 48.006035-48.006035v-255.956345z" p-id="4167"></path></svg>