<?xml version="1.0" standalone="no"?>
<!DOCTYPE svg PUBLIC "-//W3C//DTD SVG 1.1//EN" "http://www.w3.org/Graphics/SVG/1.1/DTD/svg11.dtd"><svg t="1716877736662"
    class="icon" viewBox="0 0 1024 1024" version="1.1" xmlns="http://www.w3.org/2000/svg" p-id="1941"
    xmlns:xlink="http://www.w3.org/1999/xlink" width="64" height="64">
    <path
        d="M1009.81333333 37.86666667c0-0.10666667-0.10666667-0.10666667-0.10666666-0.21333334-2.24-4.37333333-5.44-8.32-9.38666667-11.52-3.84-3.2-8.21333333-5.54666667-12.8-7.04-0.10666667 0-0.21333333-0.10666667-0.32-0.10666666-1.81333333-0.64-3.73333333-0.96-5.65333333-1.28-0.53333333-0.10666667-1.06666667-0.32-1.70666667-0.32-1.81333333-0.21333333-3.52-0.21333333-5.33333333-0.10666667-0.74666667 0-1.38666667-0.10666667-2.13333334 0-5.12 0.32-10.24 1.81333333-14.93333333 4.16L31.46666667 480.64c-9.06666667 4.37333333-16 12.26666667-19.2 21.86666667-0.96 2.66666667-1.38666667 5.54666667-1.70666667 8.32-0.96 5.65333333-0.74666667 11.52 1.06666667 17.06666666 2.98666667 9.70666667 9.70666667 17.70666667 18.77333333 22.29333334l234.98666667 123.52c5.65333333 2.98666667 11.84 4.48 18.24 4.48 14.18666667 0.10666667 27.2-7.57333333 34.13333333-19.94666667 10.13333333-18.45333333 2.98666667-41.38666667-15.78666667-51.30666667l-171.73333333-90.24 690.66666667-342.61333333-421.22666667 483.73333333c-0.32 0.32-0.42666667 0.74666667-0.74666667 1.06666667-10.45333333 6.82666667-17.28 18.34666667-17.28 31.57333333v278.50666667c0.10666667 10.13333333 4.26666667 19.84 11.52 26.98666667 7.25333333 7.14666667 17.06666667 10.98666667 27.2 10.88v0.10666666c21.33333333 0 38.61333333-16.96 38.61333334-37.86666666V706.45333333L918.82666667 178.13333333l-95.57333334 696.85333334-242.45333333-116.48c-19.09333333-9.17333333-42.02666667-1.49333333-51.73333333 17.28-4.48 9.06666667-5.12 19.52-1.81333334 29.12 3.30666667 9.6 10.34666667 17.38666667 19.52 21.65333333l288.10666667 138.56c5.33333333 2.56 11.09333333 3.84 17.06666667 3.84 0.21333333 0 0.42666667-0.10666667 0.64-0.10666667 0.64 0 1.38666667 0.21333333 2.02666666 0.21333334 19.2 0.10666667 35.52-13.86666667 38.29333334-32.85333334l119.46666666-870.50666666c2.66666667-8.96 2.13333333-18.88-2.56-27.84z"
        p-id="1942"></path>
</svg>