<?xml version="1.0" standalone="no"?><!DOCTYPE svg PUBLIC "-//W3C//DTD SVG 1.1//EN" "http://www.w3.org/Graphics/SVG/1.1/DTD/svg11.dtd"><svg t="1728555102272" class="icon" viewBox="0 0 1024 1024" version="1.1" xmlns="http://www.w3.org/2000/svg" p-id="2316" xmlns:xlink="http://www.w3.org/1999/xlink" width="64" height="64"><path d="M901.347556 414.435556a65.194667 65.194667 0 0 1 65.194666 65.194666v422.229334c0 36.010667-29.184 65.194667-65.194666 65.194666H479.118222a65.194667 65.194667 0 0 1-65.194666-65.194666V479.630222c0-36.010667 29.184-65.194667 65.137777-65.194666h422.286223z m-779.264 292.408888h65.251555a129.820444 129.820444 0 0 0 129.877333 129.877334v65.137778a195.015111 195.015111 0 0 1-194.673777-182.158223l-0.455111-12.856889z m612.977777-129.820444h-65.763555l-93.411556 258.218667h53.646222l19.456-54.670223h102.001778l19.456 54.613334h55.637334l-91.022223-258.161778z m-32.426666 50.460444l34.702222 110.478223h-74.126222l37.888-110.478223h1.536zM544.426667 57.059556c36.010667 0 65.194667 29.184 65.194666 65.137777v259.754667H479.687111l-5.233778 0.227556v-142.791112H353.109333v-34.702222a76.515556 76.515556 0 0 1 5.745778-30.549333c0-1.024-3.128889-1.536-10.069333-2.616889h-47.331556v68.380444H186.766222v163.100445h47.331556V377.742222h68.323555v119.921778h50.631111v-120.035556h69.916445v21.048889h2.048a96.995556 96.995556 0 0 0-42.666667 80.554667v130.389333H122.197333A65.194667 65.194667 0 0 1 56.888889 544.483556V122.197333c0-35.953778 29.184-65.137778 65.194667-65.137777h422.229333zM302.421333 278.414222v61.269334H234.097778V278.414222h68.323555z m120.433778-0.113778V339.626667h-69.973333V278.186667h69.973333z m283.477333-156.103111a195.015111 195.015111 0 0 1 194.673778 182.215111l0.398222 12.856889H836.266667a129.820444 129.820444 0 0 0-129.877334-129.877333V122.197333z" fill="#409eff" p-id="2317"></path><path d="M544.369778 57.059556c36.010667 0 65.194667 29.184 65.194666 65.137777v259.754667H479.687111l-5.233778 0.227556v-142.791112H353.109333v-34.702222a76.515556 76.515556 0 0 1 5.745778-30.549333c0-1.024-3.128889-1.536-10.069333-2.616889h-47.331556v68.380444H186.766222v163.100445h47.331556V377.742222h68.323555v119.921778h50.631111v-120.035556h69.916445v21.048889h2.048a96.995556 96.995556 0 0 0-42.666667 80.554667v130.389333H122.197333A65.194667 65.194667 0 0 1 56.888889 544.483556V122.197333c0-35.953778 29.184-65.137778 65.194667-65.137777h422.229333zM302.421333 278.414222v61.269334H234.097778V278.414222h68.323555z m120.433778-0.113778V339.626667h-69.973333V278.186667h69.973333z m283.477333-156.103111a195.015111 195.015111 0 0 1 194.673778 182.215111l0.398222 12.856889H836.266667a129.820444 129.820444 0 0 0-129.877334-129.877333V122.197333z" fill="#fff" p-id="2318"></path></svg>